HIERARCHY
ROOT root
{
	OFFSET 0.000000 0.000000 0.000000
	CHANNELS 6 Xposition Yposition Zposition Zrotation Yrotation Xrotation
	JOINT lhip
	{
		OFFSET 0.058581 -0.082280 -0.017664
		CHANNELS 3 Zrotation Yrotation Xrotation
		JOINT lknee
		{
			OFFSET 0.043451 -0.386469 0.008037
			CHANNELS 3 Zrotation Yrotation Xrotation
			JOINT lankle
			{
				OFFSET -0.014790 -0.426874 -0.037428
				CHANNELS 3 Zrotation Yrotation Xrotation
				JOINT ltoe
				{
					OFFSET 0.041054 -0.060286 0.122042
					CHANNELS 3 Zrotation Yrotation Xrotation
					End Site
					{
						OFFSET 0.000000 0.000000 0.000000
					}
				}
			}
		}
	}
	JOINT rhip
	{
		OFFSET -0.060310 -0.090513 -0.013543
		CHANNELS 3 Zrotation Yrotation Xrotation
		JOINT rknee
		{
			OFFSET -0.043257 -0.383688 -0.004843
			CHANNELS 3 Zrotation Yrotation Xrotation
			JOINT rankle
			{
				OFFSET 0.019056 -0.420046 -0.034562
				CHANNELS 3 Zrotation Yrotation Xrotation
				JOINT rtoe
				{
					OFFSET -0.034840 -0.062106 0.130323
					CHANNELS 3 Zrotation Yrotation Xrotation
					End Site
					{
						OFFSET 0.000000 0.000000 0.000000
					}
				}
			}
		}
	}
	JOINT lowerback
	{
		OFFSET 0.004439 0.124404 -0.038385
		CHANNELS 3 Zrotation Yrotation Xrotation
		JOINT upperback
		{
			OFFSET 0.004488 0.137956 0.026820
			CHANNELS 3 Zrotation Yrotation Xrotation
			JOINT chest
			{
				OFFSET -0.002265 0.056032 0.002855
				CHANNELS 3 Zrotation Yrotation Xrotation
				JOINT lowerneck
				{
					OFFSET -0.013390 0.211636 -0.033468
					CHANNELS 3 Zrotation Yrotation Xrotation
					JOINT upperneck
					{
						OFFSET 0.010113 0.088937 0.050410
						CHANNELS 3 Zrotation Yrotation Xrotation
						End Site
						{
							OFFSET 0.000000 0.000000 0.000000
						}
					}
				}
				JOINT lclavicle
				{
					OFFSET 0.071702 0.114000 -0.018898
					CHANNELS 3 Zrotation Yrotation Xrotation
					JOINT lshoulder
					{
						OFFSET 0.122921 0.045205 -0.019046
						CHANNELS 3 Zrotation Yrotation Xrotation
						JOINT lelbow
						{
							OFFSET 0.255332 -0.015649 -0.022946
							CHANNELS 3 Zrotation Yrotation Xrotation
							JOINT lwrist
							{
								OFFSET 0.265709 0.012698 -0.007375
								CHANNELS 3 Zrotation Yrotation Xrotation
								End Site
								{
									OFFSET 0.000000 0.000000 0.000000
								}
							}
						}
					}
				}
				JOINT rclavicle
				{
					OFFSET -0.082954 0.112472 -0.023707
					CHANNELS 3 Zrotation Yrotation Xrotation
					JOINT rshoulder
					{
						OFFSET -0.113228 0.046853 -0.008472
						CHANNELS 3 Zrotation Yrotation Xrotation
						JOINT relbow
						{
							OFFSET -0.260127 -0.014369 -0.031269
							CHANNELS 3 Zrotation Yrotation Xrotation
							JOINT rwrist
							{
								OFFSET -0.269108 0.006794 -0.006027
								CHANNELS 3 Zrotation Yrotation Xrotation
								End Site
								{
									OFFSET 0.000000 0.000000 0.000000
								}
							}
						}
					}
				}
			}
		}
	}
}
MOTION
Frames: 8
Frame Time: 0.033333
0.065001 -1.974798 0.999788 -165.493905 -0.269990 91.288769 -0.019600 -1.772504 -0.948753 -4.450406 -12.784067 -2.867483 0.851417 7.273156 -10.581302 0.000000 -0.000000 0.000000 -0.482779 -5.873293 -3.340252 4.592276 -7.440818 7.916280 2.337275 -9.984157 -12.299626 0.000000 -0.000000 0.000000 -0.052757 3.646312 10.027058 -0.427740 0.928641 -0.335487 1.669814 0.109491 -5.928932 -1.305338 14.998521 9.112218 0.886955 19.580743 3.950959 -24.239358 -1.180294 0.077435 -54.827788 -6.227283 11.432287 14.157558 -24.089345 -4.737225 8.113041 -6.411246 -0.561522 21.523447 0.795935 3.022162 55.994695 4.633529 11.297254 -8.478065 20.454647 -3.643657 1.180340 5.976153 -1.307430 
0.065370 -1.974354 0.999652 -165.797423 -0.465672 91.544193 -0.169962 -1.544406 -1.349079 -4.656636 -12.786662 -2.505471 1.037550 7.299160 -10.564856 0.000000 -0.000000 0.000000 -0.654999 -5.606176 -3.707830 4.666591 -7.232216 8.012425 2.556953 -10.177656 -12.562373 0.000000 -0.000000 0.000000 -0.119852 3.159524 10.338601 -0.540075 0.488955 -0.726625 1.373840 0.561990 -6.087278 -1.319605 15.465692 8.592507 0.987106 19.711816 3.909293 -23.762700 -0.678311 -0.367619 -54.843539 -5.932731 11.519466 13.484449 -24.137458 -4.212957 6.567069 -6.611843 -1.060693 21.673373 1.148367 3.160763 56.135694 4.646835 11.611902 -8.494377 20.409497 -3.505966 1.690513 6.061292 -1.731936 
0.065483 -1.973134 0.999290 -165.925717 -0.488187 91.676501 -0.098653 -1.363654 -1.518516 -4.863146 -12.826910 -2.316272 1.204350 7.344860 -10.393470 0.000000 -0.000000 0.000000 -0.680570 -5.495658 -3.723554 4.738634 -7.230170 7.900967 2.656076 -10.206676 -12.545699 0.000000 -0.000000 0.000000 0.305888 2.474267 10.840372 -0.772794 -0.258348 -1.253610 0.861970 1.107843 -6.099136 -1.427052 16.012760 7.877891 1.047627 19.823919 3.850007 -23.182936 0.130707 -1.056445 -54.909360 -5.407478 11.319212 12.943214 -24.443428 -3.347250 4.080412 -6.574950 -1.578579 21.829083 1.544527 3.563055 56.520193 4.833495 11.804643 -8.737743 20.568604 -3.227901 2.455009 5.937814 -2.052843 
0.065610 -1.971800 0.999101 -166.350992 -0.548329 91.796418 -0.059326 -1.157732 -1.705385 -5.147956 -12.707052 -1.912239 1.352297 7.321722 -9.972774 0.000000 -0.000000 0.000000 -0.803755 -5.247297 -3.676248 4.784509 -7.503569 7.678306 2.710477 -9.828157 -12.252897 0.000000 -0.000000 0.000000 0.703145 2.041211 11.136243 -1.040322 -0.810794 -1.585249 0.440465 1.493731 -6.082740 -1.260712 16.398634 7.977558 1.121354 19.579495 3.348541 -22.608728 0.803083 -1.474115 -55.046738 -5.105473 10.998595 12.375864 -24.569372 -2.515781 1.625117 -6.590234 -2.051544 21.782672 1.963974 3.965609 57.102475 5.044020 11.997378 -9.014374 20.908148 -2.846112 3.255043 5.720492 -2.617693 
0.065666 -1.971217 0.999031 -166.467359 -0.585712 91.871110 -0.001055 -0.933070 -1.758873 -5.329913 -12.635051 -1.857232 1.373630 7.179143 -9.979442 0.000000 -0.000000 0.000000 -0.848884 -5.408093 -3.733207 4.806503 -7.333878 7.699049 2.777476 -9.693988 -12.322764 0.000000 -0.000000 0.000000 0.628463 2.065256 10.941595 -1.011775 -0.843619 -1.497332 0.438561 1.526039 -6.049681 -1.204305 16.467981 7.981936 1.054602 19.508521 3.345122 -22.556687 0.840649 -1.460384 -55.106506 -5.138313 10.933806 12.336925 -24.503567 -2.425123 1.760282 -6.564841 -2.079879 21.783887 1.949055 4.029715 57.109968 5.095726 11.984669 -8.944532 21.016360 -2.749782 3.146837 5.713749 -2.629451 
0.065920 -1.970462 0.999050 -166.616244 -0.567019 91.969349 0.050733 -0.830129 -1.776733 -5.347090 -12.577257 -1.933628 1.414558 7.245698 -10.005664 0.000000 -0.000000 0.000000 -0.796465 -5.446777 -3.803128 4.798748 -7.226308 7.717446 2.875961 -9.621626 -12.306571 0.000000 -0.000000 0.000000 0.602104 1.959181 10.918840 -0.982035 -0.898921 -1.605751 0.425482 1.596179 -6.044839 -1.149496 16.756745 7.883529 0.983320 19.475177 3.327531 -22.406857 0.984337 -1.415248 -55.185647 -5.049515 10.903883 12.207431 -24.570919 -2.266646 1.752734 -6.710728 -2.255176 21.751770 1.931486 4.107332 57.214573 5.163736 12.079550 -8.841972 21.093076 -2.550937 3.049156 5.775353 -2.776230 
0.066129 -1.969879 0.999124 -166.795813 -0.556984 91.927550 0.042924 -0.906880 -1.660871 -5.328922 -12.500047 -1.949178 1.436137 7.428638 -10.071339 0.000000 -0.000000 0.000000 -0.752176 -5.303757 -3.691291 4.801277 -7.133925 7.703735 2.821042 -9.649400 -12.269470 0.000000 -0.000000 0.000000 0.619515 1.981208 10.919477 -0.974609 -0.848014 -1.497023 0.427816 1.538744 -5.874756 -1.104535 16.708809 7.621438 0.771423 19.157453 3.009036 -22.370626 1.062497 -1.584125 -55.205960 -5.127126 10.895746 12.085819 -24.490016 -2.196625 1.569140 -6.683407 -2.203161 21.704596 1.909320 3.874736 57.283634 5.206615 12.120306 -8.874858 21.237964 -2.479982 3.203662 5.771367 -2.916417 
0.066296 -1.969411 0.999125 -166.937254 -0.534038 91.949852 0.062312 -0.948937 -1.580226 -5.319042 -12.660516 -2.097050 1.449281 7.649233 -10.071298 0.000000 -0.000000 0.000000 -0.696009 -5.222627 -3.695864 4.803872 -7.106055 7.665043 2.823383 -9.684917 -12.357105 0.000000 -0.000000 0.000000 0.653957 1.949268 10.899157 -0.986758 -0.848199 -1.436556 0.429180 1.534238 -5.921392 -1.189869 16.787366 7.408402 0.782486 19.207144 3.075544 -22.321828 1.041961 -1.590200 -55.276974 -5.056979 10.898255 12.197829 -24.434915 -2.213698 1.408668 -6.701691 -2.281471 21.690528 1.937723 3.857950 57.321602 5.174883 12.127153 -8.948046 21.392261 -2.456286 3.258752 5.794955 -3.049721 
